<?xml version="1.0" encoding="UTF-8" standalone="no"?>
<svg
   xmlns:dc="http://purl.org/dc/elements/1.1/"
   xmlns:cc="http://creativecommons.org/ns#"
   xmlns:rdf="http://www.w3.org/1999/02/22-rdf-syntax-ns#"
   xmlns:svg="http://www.w3.org/2000/svg"
   xmlns="http://www.w3.org/2000/svg"
   xmlns:sodipodi="http://sodipodi.sourceforge.net/DTD/sodipodi-0.dtd"
   xmlns:inkscape="http://www.inkscape.org/namespaces/inkscape"
   viewBox="0 0 26.9 34.2"
   version="1.1"
   id="svg15"
   sodipodi:docname="stackoverflow.svg"
   inkscape:version="0.92.4 (f8dce91, 2019-08-02)">
  <metadata
     id="metadata19">
    <rdf:RDF>
      <cc:Work
         rdf:about="">
        <dc:format>image/svg+xml</dc:format>
        <dc:type
           rdf:resource="http://purl.org/dc/dcmitype/StillImage" />
      </cc:Work>
    </rdf:RDF>
  </metadata>
  <sodipodi:namedview
     pagecolor="#ffffff"
     bordercolor="#666666"
     borderopacity="1"
     objecttolerance="10"
     gridtolerance="10"
     guidetolerance="10"
     inkscape:pageopacity="0"
     inkscape:pageshadow="2"
     inkscape:window-width="1920"
     inkscape:window-height="1053"
     id="namedview17"
     showgrid="false"
     inkscape:zoom="6.9005846"
     inkscape:cx="13.45"
     inkscape:cy="17.1"
     inkscape:window-x="0"
     inkscape:window-y="27"
     inkscape:window-maximized="1"
     inkscape:current-layer="overflowing-stacked-papers-tray" />
  <defs
     id="defs4">
    <style
       id="style2">.cls-1{fill:#6c63ff}</style>
  </defs>
  <g
     id="overflowing-stacked-papers-tray">
    <g
       id="Group_18"
       data-name="Group 18"
       style="fill:#55b0ff;fill-opacity:1">
      <path
         id="Path_292"
         d="M126.5 426.2h11.8a1 1 0 0 0 1-1V424a1 1 0 0 0-1-1h-11.8a1 1 0 0 0-1 1v1.3a1 1 0 0 0 1 1z"
         class="cls-1"
         data-name="Path 292"
         transform="translate(-121.3 -396.5)"
         style="fill:#55b0ff;fill-opacity:1" />
      <path
         id="Path_293"
         d="M58.5 330.5c0 1.8 0 1.8.2 1.8H80c1.1 0 1.1 0 1.1-.2V319a1 1 0 0 0-1-1h-.7a1 1 0 0 0-1 1V329a.6.6 0 0 1-.5.6h-16a.6.6 0 0 1-.6-.6V319a1 1 0 0 0-1-1h-.7a1 1 0 0 0-1 1v11.5z"
         class="cls-1"
         data-name="Path 293"
         transform="translate(-58.5 -298.1)"
         style="fill:#55b0ff;fill-opacity:1" />
      <path
         id="Path_294"
         d="M129.3 349l11.8 1h.1a1 1 0 0 0 1-.8v-1.3a1 1 0 0 0-.8-1l-11.8-1.1a1 1 0 0 0-1 .8l-.2 1.3a1 1 0 0 0 .9 1z"
         class="cls-1"
         data-name="Path 294"
         transform="translate(-124 -324.2)"
         style="fill:#55b0ff;fill-opacity:1" />
      <path
         id="Path_295"
         d="M407 13a1 1 0 0 0 .9.8 1 1 0 0 0 .2 0l1.3-.2a1 1 0 0 0 .8-1.1l-2-11.7A1 1 0 0 0 407 0l-1.3.2a1 1 0 0 0-.8 1.1z"
         class="cls-1"
         data-name="Path 295"
         transform="translate(-383.3)"
         style="fill:#55b0ff;fill-opacity:1" />
      <path
         id="Path_296"
         d="M183.3 150.6l10.2 6a1 1 0 0 0 1.3-.3l.7-1.1a1 1 0 0 0-.3-1.4l-10.3-6a1 1 0 0 0-1.3.3l-.7 1.2a1 1 0 0 0 .4 1.3z"
         class="cls-1"
         data-name="Path 296"
         transform="translate(-175 -138.5)"
         style="fill:#55b0ff;fill-opacity:1" />
      <path
         id="Path_297"
         d="M284.5 59.6a1 1 0 0 0 1.4.3l1-.8a1 1 0 0 0 .3-1.3l-6.7-9.8a1 1 0 0 0-1.3-.3l-1.1.8a1 1 0 0 0-.3 1.3z"
         class="cls-1"
         data-name="Path 297"
         transform="translate(-264 -44.6)"
         style="fill:#55b0ff;fill-opacity:1" />
      <path
         id="Path_298"
         d="M143.8 254.8l11.5 3a1 1 0 0 0 1.2-.6l.3-1.3a1 1 0 0 0-.7-1.2l-11.4-3a1 1 0 0 0-1.2.6l-.3 1.3a1 1 0 0 0 .6 1.2z"
         class="cls-1"
         data-name="Path 298"
         transform="translate(-137.8 -236)"
         style="fill:#55b0ff;fill-opacity:1" />
    </g>
    <g
       style="fill:#55b0ff;fill-opacity:1"
       data-name="Group 18"
       id="g840">
      <path
         style="fill:#55b0ff;fill-opacity:1"
         transform="translate(-121.3 -396.5)"
         data-name="Path 292"
         class="cls-1"
         d="M126.5 426.2h11.8a1 1 0 0 0 1-1V424a1 1 0 0 0-1-1h-11.8a1 1 0 0 0-1 1v1.3a1 1 0 0 0 1 1z"
         id="path826" />
      <path
         style="fill:#55b0ff;fill-opacity:1"
         transform="translate(-58.5 -298.1)"
         data-name="Path 293"
         class="cls-1"
         d="M58.5 330.5c0 1.8 0 1.8.2 1.8H80c1.1 0 1.1 0 1.1-.2V319a1 1 0 0 0-1-1h-.7a1 1 0 0 0-1 1V329a.6.6 0 0 1-.5.6h-16a.6.6 0 0 1-.6-.6V319a1 1 0 0 0-1-1h-.7a1 1 0 0 0-1 1v11.5z"
         id="path828" />
      <path
         style="fill:#55b0ff;fill-opacity:1"
         transform="translate(-124 -324.2)"
         data-name="Path 294"
         class="cls-1"
         d="M129.3 349l11.8 1h.1a1 1 0 0 0 1-.8v-1.3a1 1 0 0 0-.8-1l-11.8-1.1a1 1 0 0 0-1 .8l-.2 1.3a1 1 0 0 0 .9 1z"
         id="path830" />
      <path
         style="fill:#55b0ff;fill-opacity:1"
         transform="translate(-383.3)"
         data-name="Path 295"
         class="cls-1"
         d="M407 13a1 1 0 0 0 .9.8 1 1 0 0 0 .2 0l1.3-.2a1 1 0 0 0 .8-1.1l-2-11.7A1 1 0 0 0 407 0l-1.3.2a1 1 0 0 0-.8 1.1z"
         id="path832" />
      <path
         style="fill:#55b0ff;fill-opacity:1"
         transform="translate(-175 -138.5)"
         data-name="Path 296"
         class="cls-1"
         d="M183.3 150.6l10.2 6a1 1 0 0 0 1.3-.3l.7-1.1a1 1 0 0 0-.3-1.4l-10.3-6a1 1 0 0 0-1.3.3l-.7 1.2a1 1 0 0 0 .4 1.3z"
         id="path834" />
      <path
         style="fill:#55b0ff;fill-opacity:1"
         transform="translate(-264 -44.6)"
         data-name="Path 297"
         class="cls-1"
         d="M284.5 59.6a1 1 0 0 0 1.4.3l1-.8a1 1 0 0 0 .3-1.3l-6.7-9.8a1 1 0 0 0-1.3-.3l-1.1.8a1 1 0 0 0-.3 1.3z"
         id="path836" />
      <path
         style="fill:#55b0ff;fill-opacity:1"
         transform="translate(-137.8 -236)"
         data-name="Path 298"
         class="cls-1"
         d="M143.8 254.8l11.5 3a1 1 0 0 0 1.2-.6l.3-1.3a1 1 0 0 0-.7-1.2l-11.4-3a1 1 0 0 0-1.2.6l-.3 1.3a1 1 0 0 0 .6 1.2z"
         id="path838" />
    </g>
  </g>
</svg>
