<?xml version="1.0" encoding="UTF-8" standalone="no"?>
<svg
   xmlns:dc="http://purl.org/dc/elements/1.1/"
   xmlns:cc="http://creativecommons.org/ns#"
   xmlns:rdf="http://www.w3.org/1999/02/22-rdf-syntax-ns#"
   xmlns:svg="http://www.w3.org/2000/svg"
   xmlns="http://www.w3.org/2000/svg"
   xmlns:sodipodi="http://sodipodi.sourceforge.net/DTD/sodipodi-0.dtd"
   xmlns:inkscape="http://www.inkscape.org/namespaces/inkscape"
   viewBox="0 0 837.3 703.7"
   version="1.1"
   id="svg10"
   sodipodi:docname="overlay-blue.svg"
   inkscape:version="0.92.4 (f8dce91, 2019-08-02)">
  <metadata
     id="metadata14">
    <rdf:RDF>
      <cc:Work
         rdf:about="">
        <dc:format>image/svg+xml</dc:format>
        <dc:type
           rdf:resource="http://purl.org/dc/dcmitype/StillImage" />
        <dc:title></dc:title>
      </cc:Work>
    </rdf:RDF>
  </metadata>
  <sodipodi:namedview
     pagecolor="#ffffff"
     bordercolor="#666666"
     borderopacity="1"
     objecttolerance="10"
     gridtolerance="10"
     guidetolerance="10"
     inkscape:pageopacity="0"
     inkscape:pageshadow="2"
     inkscape:window-width="1920"
     inkscape:window-height="1053"
     id="namedview12"
     showgrid="false"
     inkscape:zoom="0.33537018"
     inkscape:cx="-64.39832"
     inkscape:cy="351.85001"
     inkscape:window-x="0"
     inkscape:window-y="27"
     inkscape:window-maximized="1"
     inkscape:current-layer="svg10" />
  <defs
     id="defs4">
    <style
       id="style2">.a{fill:#efeeff}</style>
  </defs>
  <path
     d="M0 0s147.8 100.8 67.5 300.3S620 377.5 620 377.5l-24.2 180.4 40.6 131.5 201-62.8V0z"
     class="a"
     id="path6"
     style="fill:#c5e1fe;fill-opacity:1" />
  <path
     d="M439.4 310.9c-45.1-1.6-88-16.1-129-32s-81.5-33.6-125.5-42c-28.3-5.4-60.7-6.2-83.4 9-22 14.6-29 39.7-32.9 63.1-2.8 17.6-4.5 36.1 3.3 52.6 5.5 11.4 15.2 21 21.9 32 23.3 38 6.8 85-18.5 122.2-11.8 17.5-25.5 34.1-34.7 52.7s-13.3 39.8-5.3 58.8C43.2 646 62 660.2 82.5 670c41.6 20.1 90.5 26 138.3 29.2 105.7 7.2 212 4 318 1a934 934 0 0 0 117.1-8.4c21.4-3.4 43.5-8.8 59.1-21.6a49.5 49.5 0 0 0 11.4-64.7c-22.2-34.4-83.5-43-99-80-8.6-20.3.2-43 12.6-61.9 26.6-40.5 71.2-76 73.6-122.3 1.6-31.8-19.9-63.6-53-78.6C625.8 247 577.6 249 552 275c-26.5 26.8-72.9 37.2-112.6 35.8z"
     class="a"
     id="path8"
     style="fill:#c5e1fe;fill-opacity:1" />
</svg>
